<svg width="1920" height="1083" viewBox="0 0 1920 1083" fill="none" xmlns="http://www.w3.org/2000/svg">
<path d="M0 1H1917.34V1080.49H0V1Z" fill="#FF8F8F"/>
<path d="M172.427 952.916C52.5936 948.699 11.9834 1036.55 6.65742 1081H1920V5.19693C1837.23 -4.64219 1656.23 15.3172 1594.45 173.868C1532.67 332.418 1401.39 324.266 1343.47 300.371C1189.68 438.118 856.411 708.027 753.62 685.678C650.829 663.329 514.175 769.135 458.696 824.831C413.204 869.283 292.261 957.132 172.427 952.916Z" fill="#FF8F8F"/>
<path d="M429.5 784.5C197.5 756.5 48.8333 971.833 3.5 1083L1914.5 1078.5V2.00002C1780.9 -18.8 1703.17 137.333 1681 218C1665 357 1578.5 597.2 1360.5 446C1142.5 294.8 994.667 450.333 948 547C871.833 637.833 661.5 812.5 429.5 784.5Z" fill="#483F68"/>
</svg>
