<svg width="1282" height="722" viewBox="0 0 1282 722" fill="none" xmlns="http://www.w3.org/2000/svg">
<path d="M1 1H1279.22V720.662H1V1Z" fill="#483F68"/>
<path d="M115.951 635.61C36.0624 632.799 8.9889 691.365 5.43828 721H1281V3.79795C1225.82 -2.76146 1105.16 10.5448 1063.97 116.245C1022.78 221.945 935.258 216.51 896.645 200.58C794.121 292.412 571.94 472.351 503.413 457.452C434.886 442.553 343.783 513.09 306.798 550.221C276.469 579.855 195.84 638.422 115.951 635.61Z" fill="#FF8F8F"/>
<path d="M1 1H1279.22V720.662H1V1Z" stroke="#483F68"/>
<path d="M115.951 635.61C36.0624 632.799 8.9889 691.365 5.43828 721H1281V3.79795C1225.82 -2.76146 1105.16 10.5448 1063.97 116.245C1022.78 221.945 935.258 216.51 896.645 200.58C794.121 292.412 571.94 472.351 503.413 457.452C434.886 442.553 343.783 513.09 306.798 550.221C276.469 579.855 195.84 638.422 115.951 635.61Z" stroke="#483F68"/>
</svg>
