<svg width="265" height="109" viewBox="0 0 265 109" fill="none" xmlns="http://www.w3.org/2000/svg">
<path d="M36.2057 62.1734L35.7908 62.6805C35.4834 62.9879 34.9609 63.3874 34.2232 63.8792C33.5163 64.3403 32.6557 64.8167 31.6414 65.3084C30.6579 65.7695 29.3362 66.1537 27.6765 66.461C26.0168 66.7991 24.2341 66.9682 22.3285 66.9682C18.3021 66.9682 14.8597 66.3073 12.0013 64.9857C9.14282 63.6333 6.89911 61.6816 5.27011 59.1305C3.67185 56.5487 2.51926 53.6442 1.81234 50.4169C1.10541 47.1589 0.751953 43.3938 0.751953 39.1215C0.751953 34.5726 1.10541 30.6538 1.81234 27.3651C2.51926 24.0456 3.68722 21.1411 5.31622 18.6515C6.97595 16.1312 9.2504 14.2409 12.1396 12.9807C15.0287 11.7206 18.548 11.0905 22.6973 11.0905C24.6029 11.0905 26.3856 11.2595 28.0453 11.5976C29.7358 11.9357 31.0574 12.3199 32.0103 12.7502C32.9938 13.1805 33.8698 13.6723 34.6382 14.2255C35.4373 14.7788 35.9291 15.163 36.1135 15.3781C36.3286 15.5933 36.4823 15.7623 36.5745 15.8853L35.883 26.4891H28.8752L26.4778 21.0028C25.9246 20.8491 25.4635 20.7723 25.0947 20.7723C23.0354 20.7723 21.4525 21.2487 20.346 22.2015C19.2395 23.1236 18.3943 24.9523 17.8103 27.6878C17.2263 30.3926 16.9343 34.296 16.9343 39.3982C16.9343 42.441 17.1188 45.0997 17.4876 47.3741C17.8872 49.6485 18.3636 51.4005 18.9168 52.6299C19.47 53.8286 20.1309 54.7968 20.8993 55.5345C21.6677 56.2721 22.3592 56.7485 22.9739 56.9637C23.5886 57.1481 24.2495 57.2403 24.9564 57.2403C26.5239 57.2403 28.1683 57.0559 29.8895 56.687C31.6107 56.2875 33.0245 55.6881 34.131 54.889L36.2057 62.1734Z" fill="#B3A08A"/>
<path d="M40.3136 66V13.8567L37.5474 12.197V7.90934L52.3467 5.60416H55.3434V66H40.3136Z" fill="#B3A08A"/>
<path d="M82.1869 42.1644C82.1869 38.2609 81.9871 35.4947 81.5876 33.8657C81.188 32.2367 80.4503 31.4222 79.3746 31.4222C78.4525 31.4222 77.6995 31.5913 77.1155 31.9294C76.5315 32.2367 76.1012 32.7439 75.8246 33.4508C75.548 34.127 75.3636 34.8339 75.2714 35.5716C75.2099 36.2785 75.1792 37.1852 75.1792 38.2917V42.1644H82.1869ZM78.4986 66.9682C75.0562 66.9682 72.0595 66.4457 69.5084 65.4006C66.9881 64.3556 64.9902 62.8957 63.5149 61.0208C62.0703 59.1459 61.01 57.0405 60.3338 54.7046C59.6576 52.3379 59.3195 49.71 59.3195 46.8209C59.3195 39.936 61.0714 34.7263 64.5753 31.1917C68.0792 27.6571 72.9815 25.8898 79.2824 25.8898C85.3373 25.8898 89.6711 27.319 92.2836 30.1774C94.8962 33.0051 96.2024 37.5694 96.2024 43.8702V48.9877H75.133V49.8637C75.133 51.6771 75.3175 53.1678 75.6863 54.3358C76.0859 55.5037 76.6545 56.3643 77.3921 56.9176C78.1298 57.4708 78.8828 57.8396 79.6512 58.0241C80.4196 58.2085 81.3571 58.3007 82.4635 58.3007C83.5393 58.3007 84.6919 58.1624 85.9213 57.8857C87.1815 57.6091 88.4417 57.1788 89.7018 56.5948C90.9927 56.0109 92.0685 55.3193 92.9291 54.5202L95.6492 59.1766C94.512 61.0208 92.8369 62.5729 90.6239 63.8331C88.4417 65.0625 86.3362 65.8924 84.3077 66.3227C82.2791 66.753 80.3428 66.9682 78.4986 66.9682Z" fill="#B3A08A"/>
<path d="M121.114 61.8968L120.653 62.4039C120.345 62.7727 119.869 63.203 119.223 63.6948C118.609 64.1866 117.886 64.6783 117.056 65.1701C116.257 65.6619 115.274 66.0768 114.106 66.4149C112.938 66.7838 111.739 66.9682 110.51 66.9682C102.211 66.9682 98.0617 62.8649 98.0617 54.6585C98.0617 53.0602 98.3537 51.6003 98.9377 50.2786C99.5217 48.9263 100.275 47.789 101.197 46.867C102.119 45.9449 103.225 45.1304 104.516 44.4235C105.807 43.6858 107.098 43.1172 108.389 42.7176C109.711 42.2873 111.094 41.9339 112.538 41.6572C113.983 41.3806 115.274 41.1962 116.411 41.104C117.548 41.0118 118.639 40.9657 119.684 40.9657V40.1358C119.684 38.2609 119.177 36.9393 118.163 36.1709C117.179 35.4025 115.581 35.0183 113.368 35.0183C111.463 35.0183 109.48 35.2488 107.421 35.7099C105.361 36.1402 103.748 36.6627 102.58 37.2774L99.6292 31.0073C101.719 29.6549 104.439 28.4716 107.79 27.4573C111.14 26.4123 114.551 25.8898 118.025 25.8898C121.098 25.8898 123.634 26.1971 125.632 26.8119C127.63 27.3958 129.243 28.4101 130.473 29.8547C131.733 31.2685 132.624 33.082 133.147 35.2949C133.669 37.4772 133.93 40.2588 133.93 43.6397V62.4039L135.221 66H122.589L121.114 61.8968ZM117.471 58.8539C117.871 58.8539 118.24 58.7771 118.578 58.6234C118.947 58.439 119.223 58.2699 119.408 58.1163C119.592 57.9318 119.684 57.8396 119.684 57.8396V46.7747C117.809 46.7747 116.319 47.2973 115.212 48.3423C114.106 49.3566 113.553 50.9395 113.553 53.091C113.553 56.9329 114.859 58.8539 117.471 58.8539Z" fill="#B3A08A"/>
<path d="M154.718 66H139.827V36.1709L137.06 34.4651V29.532L146.973 26.8119H154.81V32.7592L155.364 32.0677C155.732 31.5759 156.27 30.9919 156.977 30.3157C157.715 29.6395 158.529 28.9787 159.421 28.3333C160.312 27.6571 161.372 27.0885 162.602 26.6274C163.862 26.1357 165.091 25.8898 166.29 25.8898C170.501 25.8898 173.467 27.0424 175.188 29.3476C176.94 31.6527 177.816 35.5101 177.816 40.9196C177.816 41.104 177.816 41.3806 177.816 41.7494C177.785 42.1183 177.77 42.4103 177.77 42.6254V66H162.556V41.2884C162.648 38.3992 161.419 36.9547 158.867 36.9547C158.683 36.9547 158.499 36.97 158.314 37.0008C158.161 37.0315 158.007 37.0622 157.853 37.093C157.73 37.1237 157.577 37.1852 157.392 37.2774C157.238 37.3389 157.1 37.4003 156.977 37.4618C156.854 37.4925 156.716 37.5694 156.562 37.6923C156.409 37.7845 156.286 37.8614 156.193 37.9228C156.101 37.9843 155.963 38.0919 155.778 38.2456C155.625 38.3685 155.502 38.4607 155.41 38.5222C155.348 38.5837 155.225 38.6912 155.041 38.8449C154.887 38.9679 154.78 39.0601 154.718 39.1215V66Z" fill="#B3A08A"/>
<path d="M39.2057 57.1734L38.7908 57.6805C38.4834 57.9879 37.9609 58.3874 37.2232 58.8792C36.5163 59.3403 35.6557 59.8167 34.6414 60.3084C33.6579 60.7695 32.3362 61.1537 30.6765 61.461C29.0168 61.7991 27.2341 61.9682 25.3285 61.9682C21.3021 61.9682 17.8597 61.3073 15.0013 59.9857C12.1428 58.6333 9.89911 56.6816 8.27011 54.1305C6.67185 51.5487 5.51926 48.6442 4.81234 45.4169C4.10541 42.1589 3.75195 38.3938 3.75195 34.1215C3.75195 29.5726 4.10541 25.6538 4.81234 22.3651C5.51926 19.0456 6.68722 16.1411 8.31622 13.6515C9.97595 11.1312 12.2504 9.24091 15.1396 7.98075C18.0287 6.72058 21.548 6.0905 25.6973 6.0905C27.6029 6.0905 29.3856 6.25954 31.0453 6.59764C32.7358 6.93573 34.0574 7.31993 35.0103 7.75023C35.9938 8.18053 36.8698 8.6723 37.6382 9.22555C38.4373 9.77879 38.9291 10.163 39.1135 10.3781C39.3286 10.5933 39.4823 10.7623 39.5745 10.8853L38.883 21.4891H31.8752L29.4778 16.0028C28.9246 15.8491 28.4635 15.7723 28.0947 15.7723C26.0354 15.7723 24.4525 16.2487 23.346 17.2015C22.2395 18.1236 21.3943 19.9523 20.8103 22.6878C20.2263 25.3926 19.9343 29.296 19.9343 34.3982C19.9343 37.441 20.1188 40.0997 20.4876 42.3741C20.8872 44.6485 21.3636 46.4005 21.9168 47.6299C22.47 48.8286 23.1309 49.7968 23.8993 50.5345C24.6677 51.2721 25.3592 51.7485 25.9739 51.9637C26.5886 52.1481 27.2495 52.2403 27.9564 52.2403C29.5239 52.2403 31.1683 52.0559 32.8895 51.687C34.6107 51.2875 36.0245 50.6881 37.131 49.889L39.2057 57.1734Z" fill="#FFECD6"/>
<path d="M43.3136 61V8.85672L40.5474 7.19698V2.90934L55.3467 0.604156H58.3434V61H43.3136Z" fill="#FFECD6"/>
<path d="M85.1869 37.1644C85.1869 33.2609 84.9871 30.4947 84.5876 28.8657C84.188 27.2367 83.4503 26.4222 82.3746 26.4222C81.4525 26.4222 80.6995 26.5913 80.1155 26.9294C79.5315 27.2367 79.1012 27.7439 78.8246 28.4508C78.548 29.127 78.3636 29.8339 78.2714 30.5716C78.2099 31.2785 78.1792 32.1852 78.1792 33.2917V37.1644H85.1869ZM81.4986 61.9682C78.0562 61.9682 75.0595 61.4457 72.5084 60.4006C69.9881 59.3556 67.9902 57.8957 66.5149 56.0208C65.0703 54.1459 64.01 52.0405 63.3338 49.7046C62.6576 47.3379 62.3195 44.71 62.3195 41.8209C62.3195 34.936 64.0714 29.7263 67.5753 26.1917C71.0792 22.6571 75.9815 20.8898 82.2824 20.8898C88.3373 20.8898 92.6711 22.319 95.2836 25.1774C97.8962 28.0051 99.2024 32.5694 99.2024 38.8702V43.9877H78.133V44.8637C78.133 46.6771 78.3175 48.1678 78.6863 49.3358C79.0859 50.5037 79.6545 51.3643 80.3921 51.9176C81.1298 52.4708 81.8828 52.8396 82.6512 53.0241C83.4196 53.2085 84.3571 53.3007 85.4635 53.3007C86.5393 53.3007 87.6919 53.1624 88.9213 52.8857C90.1815 52.6091 91.4417 52.1788 92.7018 51.5948C93.9927 51.0109 95.0685 50.3193 95.9291 49.5202L98.6492 54.1766C97.512 56.0208 95.8369 57.5729 93.6239 58.8331C91.4417 60.0625 89.3362 60.8924 87.3077 61.3227C85.2791 61.753 83.3428 61.9682 81.4986 61.9682Z" fill="#FFECD6"/>
<path d="M124.114 56.8968L123.653 57.4039C123.345 57.7727 122.869 58.203 122.223 58.6948C121.609 59.1866 120.886 59.6784 120.056 60.1701C119.257 60.6619 118.274 61.0768 117.106 61.4149C115.938 61.7838 114.739 61.9682 113.51 61.9682C105.211 61.9682 101.062 57.8649 101.062 49.6585C101.062 48.0602 101.354 46.6003 101.938 45.2786C102.522 43.9263 103.275 42.789 104.197 41.867C105.119 40.9449 106.225 40.1304 107.516 39.4235C108.807 38.6858 110.098 38.1172 111.389 37.7176C112.711 37.2873 114.094 36.9339 115.538 36.6572C116.983 36.3806 118.274 36.1962 119.411 36.104C120.548 36.0118 121.639 35.9657 122.684 35.9657V35.1358C122.684 33.2609 122.177 31.9393 121.163 31.1709C120.179 30.4025 118.581 30.0183 116.368 30.0183C114.463 30.0183 112.48 30.2488 110.421 30.7099C108.361 31.1402 106.748 31.6627 105.58 32.2774L102.629 26.0073C104.719 24.6549 107.439 23.4716 110.79 22.4573C114.14 21.4123 117.551 20.8898 121.025 20.8898C124.098 20.8898 126.634 21.1971 128.632 21.8119C130.63 22.3958 132.243 23.4101 133.473 24.8547C134.733 26.2685 135.624 28.082 136.147 30.2949C136.669 32.4772 136.93 35.2588 136.93 38.6397V57.4039L138.221 61H125.589L124.114 56.8968ZM120.471 53.8539C120.871 53.8539 121.24 53.7771 121.578 53.6234C121.947 53.439 122.223 53.2699 122.408 53.1163C122.592 52.9318 122.684 52.8396 122.684 52.8396V41.7747C120.809 41.7747 119.319 42.2973 118.212 43.3423C117.106 44.3566 116.553 45.9395 116.553 48.091C116.553 51.9329 117.859 53.8539 120.471 53.8539Z" fill="#FFECD6"/>
<path d="M157.718 61H142.827V31.1709L140.06 29.4651V24.532L149.973 21.8119H157.81V27.7592L158.364 27.0677C158.732 26.5759 159.27 25.9919 159.977 25.3157C160.715 24.6395 161.529 23.9787 162.421 23.3333C163.312 22.6571 164.372 22.0885 165.602 21.6274C166.862 21.1357 168.091 20.8898 169.29 20.8898C173.501 20.8898 176.467 22.0424 178.188 24.3476C179.94 26.6527 180.816 30.5101 180.816 35.9196C180.816 36.104 180.816 36.3806 180.816 36.7494C180.785 37.1183 180.77 37.4103 180.77 37.6254V61H165.556V36.2884C165.648 33.3992 164.419 31.9547 161.867 31.9547C161.683 31.9547 161.499 31.97 161.314 32.0008C161.161 32.0315 161.007 32.0622 160.853 32.093C160.73 32.1237 160.577 32.1852 160.392 32.2774C160.238 32.3389 160.1 32.4003 159.977 32.4618C159.854 32.4925 159.716 32.5694 159.562 32.6923C159.409 32.7845 159.286 32.8614 159.193 32.9228C159.101 32.9843 158.963 33.0919 158.778 33.2456C158.625 33.3685 158.502 33.4607 158.41 33.5222C158.348 33.5837 158.225 33.6912 158.041 33.8449C157.887 33.9679 157.78 34.0601 157.718 34.1215V61Z" fill="#FFECD6"/>
<path d="M135.737 107.351H123.529V64.1243H147.872V73.5294L135.737 72.7918V82.8239H145.695V91.9709L135.737 91.2332V107.351Z" fill="#B3A08A"/>
<path d="M163.37 90.6431C163.37 94.7248 163.677 97.5648 164.292 99.1631C164.932 100.761 166.038 101.56 167.612 101.56C168.767 101.56 169.64 101.278 170.23 100.712C170.82 100.122 171.263 98.9295 171.558 97.1345C171.878 95.3149 172.038 92.5979 172.038 88.9834V80.0946C172.038 76.5784 171.693 73.9597 171.005 72.2385C170.316 70.5173 169.185 69.6567 167.612 69.6567C166.038 69.6567 164.932 70.505 164.292 72.2016C163.677 73.8737 163.37 76.9349 163.37 81.3855V90.6431ZM166.837 108.126C164.796 108.126 162.952 107.941 161.305 107.572C159.682 107.204 158.28 106.687 157.1 106.023C155.92 105.359 154.887 104.511 154.002 103.478C153.141 102.446 152.44 101.339 151.9 100.159C151.383 98.9787 150.965 97.6017 150.646 96.028C150.326 94.4298 150.105 92.8438 149.982 91.2701C149.859 89.6719 149.797 87.8769 149.797 85.8852C149.797 82.9346 149.945 80.3651 150.24 78.1767C150.559 75.9883 151.137 73.9351 151.973 72.0172C152.809 70.0747 153.916 68.501 155.293 67.2962C156.694 66.0914 158.489 65.1447 160.678 64.4562C162.891 63.7677 165.497 63.4235 168.497 63.4235C170.562 63.4235 172.419 63.6202 174.066 64.0136C175.714 64.3824 177.127 64.8988 178.308 65.5627C179.488 66.2266 180.508 67.0872 181.369 68.1445C182.254 69.2018 182.955 70.3329 183.471 71.5377C184.012 72.718 184.443 74.1073 184.762 75.7055C185.082 77.3038 185.303 78.8897 185.426 80.4634C185.549 82.0371 185.611 83.8198 185.611 85.8114C185.611 88.7621 185.451 91.3316 185.131 93.52C184.811 95.7084 184.234 97.7615 183.398 99.6794C182.562 101.573 181.443 103.122 180.041 104.327C178.64 105.507 176.832 106.441 174.619 107.13C172.431 107.794 169.837 108.126 166.837 108.126Z" fill="#B3A08A"/>
<path d="M201.946 90.6431C201.946 94.7248 202.253 97.5648 202.868 99.1631C203.507 100.761 204.614 101.56 206.188 101.56C207.343 101.56 208.216 101.278 208.806 100.712C209.396 100.122 209.839 98.9295 210.134 97.1345C210.454 95.3149 210.613 92.5979 210.613 88.9834V80.0946C210.613 76.5784 210.269 73.9597 209.581 72.2385C208.892 70.5173 207.761 69.6567 206.188 69.6567C204.614 69.6567 203.507 70.505 202.868 72.2016C202.253 73.8737 201.946 76.9349 201.946 81.3855V90.6431ZM205.413 108.126C203.372 108.126 201.528 107.941 199.881 107.572C198.258 107.204 196.856 106.687 195.676 106.023C194.496 105.359 193.463 104.511 192.578 103.478C191.717 102.446 191.016 101.339 190.475 100.159C189.959 98.9787 189.541 97.6017 189.221 96.028C188.902 94.4298 188.68 92.8438 188.557 91.2701C188.435 89.6719 188.373 87.8769 188.373 85.8852C188.373 82.9346 188.521 80.3651 188.816 78.1767C189.135 75.9883 189.713 73.9351 190.549 72.0172C191.385 70.0747 192.492 68.501 193.869 67.2962C195.27 66.0914 197.065 65.1447 199.253 64.4562C201.466 63.7677 204.073 63.4235 207.073 63.4235C209.138 63.4235 210.995 63.6202 212.642 64.0136C214.289 64.3824 215.703 64.8988 216.884 65.5627C218.064 66.2266 219.084 67.0872 219.945 68.1445C220.83 69.2018 221.531 70.3329 222.047 71.5377C222.588 72.718 223.018 74.1073 223.338 75.7055C223.658 77.3038 223.879 78.8897 224.002 80.4634C224.125 82.0371 224.186 83.8198 224.186 85.8114C224.186 88.7621 224.027 91.3316 223.707 93.52C223.387 95.7084 222.809 97.7615 221.973 99.6794C221.137 101.573 220.019 103.122 218.617 104.327C217.215 105.507 215.408 106.441 213.195 107.13C211.007 107.794 208.413 108.126 205.413 108.126Z" fill="#B3A08A"/>
<path d="M242.587 101.302C244.456 101.302 245.882 100.147 246.866 97.8353C247.874 95.5239 248.378 91.7127 248.378 86.4016V82.6764C248.378 78.7914 247.911 75.7916 246.976 73.6769C246.042 71.5623 244.714 70.505 242.993 70.505H240.227V101.302H242.587ZM243.731 107.609C242.845 107.609 241.468 107.56 239.6 107.462C237.756 107.388 235.85 107.351 233.883 107.351H228.018V64.1243H233.883C235.53 64.0997 237.325 64.0382 239.268 63.9398C241.21 63.8415 242.735 63.7923 243.841 63.7923C250.111 63.7923 254.599 65.5504 257.304 69.0666C260.033 72.5828 261.398 77.7095 261.398 84.4468C261.398 86.7335 261.238 88.9096 260.918 90.9751C260.623 93.0405 260.057 95.1182 259.221 97.2083C258.385 99.2737 257.328 101.056 256.049 102.556C254.771 104.056 253.074 105.273 250.96 106.208C248.845 107.142 246.435 107.609 243.731 107.609Z" fill="#B3A08A"/>
<path d="M138.503 103.202H126.295V59.9749H150.638V69.3801L138.503 68.6424V78.6746H148.462V87.8216L138.503 87.0839V103.202Z" fill="#FFECD6"/>
<path d="M166.136 86.4938C166.136 90.5755 166.444 93.4155 167.058 95.0137C167.698 96.612 168.804 97.4111 170.378 97.4111C171.534 97.4111 172.406 97.1284 172.997 96.5628C173.587 95.9727 174.029 94.7801 174.324 92.9852C174.644 91.1656 174.804 88.4486 174.804 84.834V75.9453C174.804 72.4291 174.46 69.8104 173.771 68.0892C173.083 66.368 171.952 65.5074 170.378 65.5074C168.804 65.5074 167.698 66.3557 167.058 68.0523C166.444 69.7243 166.136 72.7856 166.136 77.2362V86.4938ZM169.603 103.976C167.563 103.976 165.718 103.792 164.071 103.423C162.448 103.054 161.047 102.538 159.866 101.874C158.686 101.21 157.653 100.362 156.768 99.329C155.907 98.2963 155.207 97.1898 154.666 96.0096C154.149 94.8293 153.731 93.4524 153.412 91.8787C153.092 90.2804 152.871 88.6945 152.748 87.1208C152.625 85.5225 152.563 83.7276 152.563 81.7359C152.563 78.7852 152.711 76.2157 153.006 74.0273C153.326 71.8389 153.904 69.7858 154.74 67.8679C155.576 65.9254 156.682 64.3517 158.059 63.1469C159.461 61.942 161.256 60.9954 163.444 60.3069C165.657 59.6184 168.263 59.2742 171.263 59.2742C173.329 59.2742 175.185 59.4709 176.832 59.8643C178.48 60.2331 179.894 60.7495 181.074 61.4134C182.254 62.0773 183.275 62.9379 184.135 63.9952C185.02 65.0525 185.721 66.1836 186.238 67.3884C186.779 68.5687 187.209 69.9579 187.528 71.5562C187.848 73.1544 188.069 74.7404 188.192 76.3141C188.315 77.8878 188.377 79.6704 188.377 81.6621C188.377 84.6127 188.217 87.1823 187.897 89.3706C187.578 91.559 187 93.6122 186.164 95.5301C185.328 97.4234 184.209 98.9725 182.807 100.177C181.406 101.358 179.599 102.292 177.386 102.98C175.197 103.644 172.603 103.976 169.603 103.976Z" fill="#FFECD6"/>
<path d="M204.712 86.4938C204.712 90.5755 205.02 93.4155 205.634 95.0137C206.274 96.612 207.38 97.4111 208.954 97.4111C210.109 97.4111 210.982 97.1284 211.572 96.5628C212.163 95.9727 212.605 94.7801 212.9 92.9852C213.22 91.1656 213.38 88.4486 213.38 84.834V75.9453C213.38 72.4291 213.035 69.8104 212.347 68.0892C211.658 66.368 210.527 65.5074 208.954 65.5074C207.38 65.5074 206.274 66.3557 205.634 68.0523C205.02 69.7243 204.712 72.7856 204.712 77.2362V86.4938ZM208.179 103.976C206.138 103.976 204.294 103.792 202.647 103.423C201.024 103.054 199.622 102.538 198.442 101.874C197.262 101.21 196.229 100.362 195.344 99.329C194.483 98.2963 193.783 97.1898 193.242 96.0096C192.725 94.8293 192.307 93.4524 191.988 91.8787C191.668 90.2804 191.447 88.6945 191.324 87.1208C191.201 85.5225 191.139 83.7276 191.139 81.7359C191.139 78.7852 191.287 76.2157 191.582 74.0273C191.902 71.8389 192.479 69.7858 193.315 67.8679C194.151 65.9254 195.258 64.3517 196.635 63.1469C198.036 61.942 199.831 60.9954 202.02 60.3069C204.233 59.6184 206.839 59.2742 209.839 59.2742C211.904 59.2742 213.761 59.4709 215.408 59.8643C217.056 60.2331 218.47 60.7495 219.65 61.4134C220.83 62.0773 221.85 62.9379 222.711 63.9952C223.596 65.0525 224.297 66.1836 224.813 67.3884C225.354 68.5687 225.785 69.9579 226.104 71.5562C226.424 73.1544 226.645 74.7404 226.768 76.3141C226.891 77.8878 226.953 79.6704 226.953 81.6621C226.953 84.6127 226.793 87.1823 226.473 89.3706C226.153 91.559 225.576 93.6122 224.74 95.5301C223.904 97.4234 222.785 98.9725 221.383 100.177C219.982 101.358 218.174 102.292 215.961 102.98C213.773 103.644 211.179 103.976 208.179 103.976Z" fill="#FFECD6"/>
<path d="M245.353 97.1529C247.222 97.1529 248.648 95.9973 249.632 93.686C250.64 91.3746 251.144 87.5634 251.144 82.2522V78.5271C251.144 74.6421 250.677 71.6422 249.743 69.5276C248.808 67.413 247.48 66.3557 245.759 66.3557H242.993V97.1529H245.353ZM246.497 103.46C245.612 103.46 244.235 103.411 242.366 103.312C240.522 103.239 238.616 103.202 236.649 103.202H230.785V59.9749H236.649C238.297 59.9503 240.091 59.8889 242.034 59.7905C243.976 59.6922 245.501 59.643 246.607 59.643C252.878 59.643 257.365 61.4011 260.07 64.9173C262.799 68.4334 264.164 73.5602 264.164 80.2974C264.164 82.5842 264.004 84.7603 263.684 86.8257C263.389 88.8912 262.824 90.9689 261.988 93.0589C261.152 95.1244 260.094 96.9071 258.816 98.407C257.537 99.9069 255.84 101.124 253.726 102.058C251.611 102.993 249.202 103.46 246.497 103.46Z" fill="#FFECD6"/>
</svg>
