<svg width="227" height="85" viewBox="0 0 227 85" fill="none" xmlns="http://www.w3.org/2000/svg">
<path d="M22.9975 49.6347L22.741 49.9482C22.5511 50.1382 22.2281 50.3851 21.7721 50.6891C21.3352 50.9741 20.8032 51.2686 20.1763 51.5725C19.5683 51.8575 18.7514 52.095 17.7255 52.285C16.6996 52.494 15.5977 52.5984 14.4198 52.5984C11.931 52.5984 9.80315 52.19 8.03631 51.3731C6.26946 50.5371 4.88258 49.3307 3.87567 47.7539C2.88775 46.158 2.17531 44.3627 1.73835 42.3678C1.30139 40.354 1.08291 38.0267 1.08291 35.3859C1.08291 32.5742 1.30139 30.1519 1.73835 28.1191C2.17531 26.0672 2.89725 24.2719 3.90416 22.733C4.93007 21.1752 6.33595 20.0068 8.1218 19.2278C9.90764 18.4489 12.083 18.0594 14.6477 18.0594C15.8256 18.0594 16.9275 18.1639 17.9534 18.3729C18.9984 18.5819 19.8153 18.8194 20.4042 19.0853C21.0122 19.3513 21.5536 19.6553 22.0286 19.9973C22.5226 20.3392 22.8265 20.5767 22.9405 20.7097C23.0735 20.8427 23.1685 20.9472 23.2255 21.0232L22.798 27.5776H18.4664L16.9845 24.1864C16.6426 24.0914 16.3576 24.0439 16.1296 24.0439C14.8567 24.0439 13.8783 24.3384 13.1944 24.9273C12.5104 25.4973 11.988 26.6277 11.627 28.3185C11.266 29.9904 11.0855 32.4032 11.0855 35.5569C11.0855 37.4378 11.1995 39.0811 11.4275 40.487C11.6745 41.8929 11.969 42.9758 12.3109 43.7357C12.6529 44.4766 13.0614 45.0751 13.5363 45.5311C14.0113 45.987 14.4388 46.2815 14.8187 46.4145C15.1987 46.5285 15.6072 46.5855 16.0441 46.5855C17.013 46.5855 18.0294 46.4715 19.0934 46.2435C20.1573 45.9965 21.0312 45.6261 21.7151 45.1321L22.9975 49.6347ZM25.5367 52V19.7693L23.8268 18.7434V16.0931L32.9745 14.6682H34.8269V52H25.5367ZM51.4194 37.2668C51.4194 34.854 51.2959 33.1441 51.0489 32.1372C50.8019 31.1303 50.3459 30.6268 49.681 30.6268C49.1111 30.6268 48.6456 30.7313 48.2846 30.9403C47.9237 31.1303 47.6577 31.4438 47.4867 31.8807C47.3157 32.2987 47.2017 32.7357 47.1447 33.1916C47.1067 33.6286 47.0877 34.189 47.0877 34.873V37.2668H51.4194ZM49.1396 52.5984C47.0117 52.5984 45.1594 52.2755 43.5825 51.6295C42.0247 50.9836 40.7898 50.0812 39.8779 48.9223C38.9849 47.7634 38.3295 46.462 37.9115 45.0181C37.4936 43.5552 37.2846 41.9309 37.2846 40.145C37.2846 35.8894 38.3675 32.6692 40.5333 30.4844C42.6991 28.2995 45.7293 27.2071 49.624 27.2071C53.3667 27.2071 56.0455 28.0906 57.6603 29.8574C59.2752 31.6053 60.0826 34.4265 60.0826 38.3212V41.4844H47.0592V42.0259C47.0592 43.1468 47.1732 44.0682 47.4012 44.7901C47.6482 45.5121 47.9997 46.044 48.4556 46.386C48.9116 46.728 49.377 46.9559 49.852 47.0699C50.327 47.1839 50.9064 47.2409 51.5903 47.2409C52.2553 47.2409 52.9677 47.1554 53.7277 46.9844C54.5066 46.8134 55.2855 46.5475 56.0645 46.1865C56.8624 45.8255 57.5273 45.3981 58.0593 44.9041L59.7406 47.7824C59.0377 48.9223 58.0023 49.8817 56.6344 50.6606C55.2855 51.4206 53.9841 51.9335 52.7302 52.1995C51.4764 52.4655 50.2795 52.5984 49.1396 52.5984ZM75.4806 49.4637L75.1957 49.7772C75.0057 50.0052 74.7112 50.2711 74.3122 50.5751C73.9323 50.8791 73.4858 51.1831 72.9728 51.487C72.4789 51.791 71.8709 52.0475 71.149 52.2565C70.4271 52.4845 69.6861 52.5984 68.9262 52.5984C63.7966 52.5984 61.2319 50.0622 61.2319 44.9896C61.2319 44.0017 61.4123 43.0993 61.7733 42.2823C62.1343 41.4464 62.5997 40.7435 63.1697 40.1735C63.7396 39.6036 64.4236 39.1001 65.2215 38.6632C66.0194 38.2072 66.8174 37.8557 67.6153 37.6087C68.4322 37.3428 69.2872 37.1243 70.1801 36.9533C71.073 36.7823 71.8709 36.6683 72.5739 36.6113C73.2768 36.5543 73.9513 36.5258 74.5972 36.5258V36.0129C74.5972 34.854 74.2837 34.0371 73.6568 33.5621C73.0488 33.0871 72.0609 32.8497 70.693 32.8497C69.5151 32.8497 68.2897 32.9921 67.0169 33.2771C65.744 33.5431 64.7466 33.8661 64.0246 34.246L62.2008 30.3704C63.4927 29.5344 65.174 28.803 67.2448 28.1761C69.3157 27.5301 71.4245 27.2071 73.5713 27.2071C75.4711 27.2071 77.0385 27.3971 78.2734 27.7771C79.5083 28.1381 80.5057 28.765 81.2656 29.6579C82.0446 30.5319 82.5955 31.6528 82.9185 33.0206C83.2415 34.3695 83.4029 36.0889 83.4029 38.1787V49.7772L84.2009 52H76.3926L75.4806 49.4637ZM73.2293 47.5829C73.4763 47.5829 73.7043 47.5354 73.9133 47.4404C74.1412 47.3264 74.3122 47.2219 74.4262 47.1269C74.5402 47.0129 74.5972 46.9559 74.5972 46.9559V40.1165C73.4383 40.1165 72.5169 40.4395 71.8329 41.0854C71.149 41.7124 70.807 42.6908 70.807 44.0207C70.807 46.3955 71.6145 47.5829 73.2293 47.5829ZM96.2522 52H87.0475V33.5621L85.3377 32.5077V29.4584L91.4646 27.7771H96.3092V31.4533L96.6512 31.0258C96.8792 30.7218 97.2116 30.3609 97.6486 29.9429C98.1046 29.5249 98.608 29.1165 99.159 28.7175C99.7099 28.2995 100.365 27.9481 101.125 27.6631C101.904 27.3591 102.664 27.2071 103.405 27.2071C106.008 27.2071 107.841 27.9196 108.905 29.3445C109.988 30.7693 110.529 33.1536 110.529 36.4973C110.529 36.6113 110.529 36.7823 110.529 37.0103C110.51 37.2383 110.501 37.4188 110.501 37.5517V52H101.097V36.7253C101.154 34.9395 100.394 34.0466 98.817 34.0466C98.703 34.0466 98.589 34.0561 98.475 34.075C98.38 34.094 98.285 34.113 98.1901 34.132C98.1141 34.151 98.0191 34.189 97.9051 34.246C97.8101 34.284 97.7246 34.322 97.6486 34.36C97.5726 34.379 97.4871 34.4265 97.3921 34.5025C97.2971 34.5595 97.2211 34.607 97.1641 34.645C97.1071 34.683 97.0217 34.7495 96.9077 34.8445C96.8127 34.9205 96.7367 34.9775 96.6797 35.0155C96.6417 35.0535 96.5657 35.12 96.4517 35.2149C96.3567 35.2909 96.2902 35.3479 96.2522 35.3859V52ZM134.655 52H125.222V18.6009H144.031V25.8678L134.655 25.2978V33.0491H142.349V40.1165L134.655 39.5466V52ZM158.115 49.1787C158.951 49.1787 159.587 48.8368 160.024 48.1528C160.48 47.4499 160.708 46.4905 160.708 45.2746V36.2694C160.708 32.5647 159.834 30.7123 158.086 30.7123C157.269 30.7123 156.633 31.0448 156.177 31.7098C155.721 32.3747 155.493 33.3151 155.493 34.531V43.7927C155.493 47.3834 156.367 49.1787 158.115 49.1787ZM157.887 52.5984C153.536 52.5984 150.354 51.6105 148.34 49.6347C146.326 47.6589 145.319 44.5051 145.319 40.1735C145.319 35.8799 146.336 32.6502 148.368 30.4844C150.401 28.2995 153.707 27.2071 158.286 27.2071C162.75 27.2071 165.97 28.2521 167.946 30.3419C169.941 32.4127 170.938 35.5569 170.938 39.7746C170.938 44.1442 169.884 47.3739 167.775 49.4637C165.685 51.5535 162.389 52.5984 157.887 52.5984ZM185.499 49.1787C186.335 49.1787 186.971 48.8368 187.408 48.1528C187.864 47.4499 188.092 46.4905 188.092 45.2746V36.2694C188.092 32.5647 187.218 30.7123 185.47 30.7123C184.654 30.7123 184.017 31.0448 183.561 31.7098C183.105 32.3747 182.877 33.3151 182.877 34.531V43.7927C182.877 47.3834 183.751 49.1787 185.499 49.1787ZM185.271 52.5984C180.92 52.5984 177.738 51.6105 175.724 49.6347C173.71 47.6589 172.704 44.5051 172.704 40.1735C172.704 35.8799 173.72 32.6502 175.753 30.4844C177.786 28.2995 181.091 27.2071 185.67 27.2071C190.135 27.2071 193.355 28.2521 195.331 30.3419C197.325 32.4127 198.323 35.5569 198.323 39.7746C198.323 44.1442 197.268 47.3739 195.16 49.4637C193.07 51.5535 189.774 52.5984 185.271 52.5984ZM217.357 52L216.246 48.3238C216.094 48.5898 215.914 48.8558 215.705 49.1217C215.515 49.3877 215.201 49.7297 214.764 50.1477C214.327 50.5466 213.862 50.8981 213.368 51.2021C212.874 51.506 212.256 51.772 211.515 52C210.774 52.228 209.996 52.342 209.179 52.342C206.044 52.342 203.745 51.2686 202.282 49.1217C200.819 46.9749 200.088 43.9922 200.088 40.1735C200.088 37.7797 200.43 35.6519 201.114 33.7901C201.798 31.9092 202.871 30.3989 204.334 29.259C205.797 28.1191 207.564 27.5491 209.635 27.5491C210.869 27.5491 211.971 27.6821 212.94 27.9481C213.909 28.2141 214.745 28.537 215.448 28.917V20.2822L212.313 19.2278V16.0931L222.401 14.6682H224.624V52H217.357ZM213.339 46.7565C213.681 46.7565 214.033 46.6995 214.394 46.5855C214.755 46.4525 215.106 46.272 215.448 46.044V31.7098C214.859 31.5768 214.318 31.5103 213.824 31.5103C211.297 31.5293 210.024 33.4766 210.005 37.3523V41.3419C210.005 43.1278 210.319 44.4766 210.945 45.3886C211.572 46.3005 212.37 46.7565 213.339 46.7565Z" fill="#FFECD6"/>
</svg>
